Coordinates
version=1
nRows=21
nColumns=12
inDegrees=yes

Units are S.I. units (second, meters, Newtons, ...)
Angles are in degrees

endheader
time	SC_y	SC_z	SC_x	AC_y	AC_z	AC_x	GH_y	GH_z	GH_yy	EL_x	PS_y
       0.0              -45.75           18.3          64.97          35.69          1.217          7.444          158.9          73.03          98.29          59.63          123.2
    0.0206              -45.75           18.3          64.96          35.69          1.218          7.442          158.8          73.02          98.29          59.64          123.2
    0.0412              -45.74           18.3          64.96          35.69          1.219           7.44          158.8          73.01          98.28          59.64          123.2
   0.06181              -45.74           18.3          64.96           35.7           1.22          7.438          158.8           73.0          98.27          59.65          123.2
   0.08241              -45.74           18.3          64.95           35.7          1.222          7.435          158.8          72.99          98.27          59.66          123.2
     0.103              -45.74          18.31          64.94           35.7          1.223          7.433          158.7          72.98          98.26          59.67          123.2
    0.1236              -45.73          18.31          64.94          35.71          1.224           7.43          158.7          72.96          98.25          59.68          123.2
    0.1442              -45.73          18.31          64.93          35.71          1.226          7.428          158.6          72.95          98.25           59.7          123.2
    0.1648              -45.73          18.31          64.93          35.72          1.228          7.425          158.6          72.94          98.24          59.71          123.1
    0.1854              -45.72          18.32          64.92          35.72          1.229          7.422          158.6          72.92          98.23          59.72          123.1
     0.206              -45.72          18.32          64.91          35.73          1.231          7.418          158.5          72.91          98.22          59.74          123.1
    0.2266              -45.71          18.32           64.9          35.73          1.233          7.415          158.5          72.89          98.21          59.75          123.1
    0.2472              -45.71          18.33           64.9          35.74          1.236          7.411          158.4          72.87           98.2          59.77          123.1
    0.2678               -45.7          18.33          64.89          35.75          1.238          7.407          158.4          72.85          98.18          59.79          123.1
    0.2884               -45.7          18.33          64.88          35.75          1.241          7.402          158.3          72.83          98.17           59.8          123.1
     0.309              -45.69          18.34          64.86          35.76          1.243          7.397          158.2          72.81          98.16          59.83          123.1
    0.3296              -45.69          18.34          64.85          35.77          1.247          7.392          158.2          72.78          98.14          59.85          123.0
    0.3502              -45.68          18.35          64.84          35.78           1.25          7.386          158.1          72.75          98.12          59.87          123.0
    0.3708              -45.67          18.35          64.83          35.79          1.254          7.379          158.0          72.72          98.11           59.9          123.0
    0.3914              -45.66          18.36          64.81           35.8          1.258          7.372          157.9          72.69          98.08          59.93          123.0
     0.412              -45.66          18.36          64.79          35.82          1.262          7.365          157.8          72.66          98.06          59.96          123.0
